<?xml version="1.0"?>
<svg xmlns="http://www.w3.org/2000/svg" viewBox="-180 -90 360 180">
  <g fill="none" stroke="white" stroke-width="0.5">
    <path d="M-60,40 C-50,30 -30,50 -20,40 C-10,30 10,50 20,40 C30,30 50,50 60,40 C70,30 90,50 100,40
             C110,30 130,50 140,40 C150,30 160,40 170,30" />
    <path d="M-160,-10 C-150,0 -130,-20 -120,-10 C-110,0 -90,-20 -80,-10 C-70,0 -50,-20 -40,-10
             C-30,0 -10,-20 0,-10 C10,0 30,-20 40,-10 C50,0 70,-20 80,-10" />
    <path d="M-140,-50 C-130,-40 -110,-60 -100,-50 C-90,-40 -70,-60 -60,-50 C-50,-40 -30,-60 -20,-50
             C-10,-40 10,-60 20,-50 C30,-40 50,-60 60,-50" />
    <path d="M20,70 C30,60 50,80 60,70 C70,60 90,80 100,70" />
    <path d="M-100,70 C-90,60 -70,80 -60,70 C-50,60 -30,80 -20,70" />
  </g>
</svg>